<?xml version="1.0" standalone="no"?>
<!DOCTYPE svg PUBLIC "-//W3C//DTD SVG 20010904//EN"
 "http://www.w3.org/TR/2001/REC-SVG-20010904/DTD/svg10.dtd">
<svg version="1.0" xmlns="http://www.w3.org/2000/svg"
 width="430.06" height="273.67" viewBox="0 0 1194.000000 310.000000"
 preserveAspectRatio="xMidYMid meet">

<g transform="translate(0.000000,310.000000) scale(0.100000,-0.100000)"
fill="#000000" stroke="none">
<path d="M668 3050 c-114 -19 -236 -69 -222 -91 3 -5 17 -9 32 -9 37 0 122
-42 151 -74 14 -14 23 -26 20 -26 -2 0 -38 9 -79 20 -151 40 -229 21 -299 -73
-38 -51 -101 -167 -101 -186 0 -6 18 -4 42 5 80 28 198 31 198 4 0 -6 -6 -10
-12 -10 -7 0 -46 -10 -85 -21 -156 -46 -227 -158 -273 -427 -21 -122 -25 -188
-11 -196 10 -6 170 36 263 69 104 38 215 97 354 190 70 46 129 83 131 81 6 -6
-149 -144 -268 -239 -134 -108 -190 -172 -239 -272 -59 -121 -75 -190 -75
-332 0 -75 4 -126 11 -133 8 -8 13 15 17 82 12 167 69 319 161 424 52 59 133
116 345 244 155 93 201 123 320 213 76 58 160 97 207 97 32 0 34 -2 28 -27 -9
-39 -39 -96 -78 -151 -63 -89 -77 -127 -74 -200 l3 -67 -35 0 c-33 -1 -35 -3
-40 -40 -4 -35 -9 -40 -32 -43 -21 -3 -28 -9 -28 -26 0 -16 -8 -24 -32 -31
-25 -8 -34 -17 -41 -45 -10 -41 -31 -60 -65 -60 -43 0 -132 53 -184 109 l-50
55 -34 -40 c-43 -50 -98 -154 -118 -223 -10 -33 -16 -92 -16 -148 0 -102 18
-165 66 -234 32 -46 147 -136 224 -174 46 -23 210 -85 225 -85 2 0 -14 37 -36
83 -37 75 -40 88 -37 147 3 48 9 74 26 98 13 17 20 32 15 32 -95 3 -197 21
-223 40 -33 23 -56 84 -47 122 26 98 117 139 235 103 21 -7 22 -5 22 42 0 39
5 56 24 76 26 28 47 35 116 39 43 3 49 8 152 115 163 170 216 266 238 435 28
211 -45 414 -210 579 -150 151 -362 216 -582 179z"/>
<path d="M1577 2766 c110 -104 189 -218 243 -350 52 -127 71 -225 71 -362 0
-91 -15 -244 -24 -250 -1 0 -48 -16 -104 -33 -80 -26 -113 -42 -149 -74 l-47
-42 7 30 c10 42 34 75 53 75 15 0 186 132 214 166 8 10 -11 1 -41 -20 -30 -20
-79 -50 -107 -67 -29 -17 -61 -43 -72 -57 -25 -35 -33 -26 -14 18 10 26 27 41
61 58 26 12 66 40 90 62 l43 39 -51 -22 c-29 -12 -70 -37 -91 -55 -42 -36 -45
-33 -28 17 8 23 24 39 58 56 26 13 70 44 97 70 27 26 42 43 34 39 -34 -17
-116 -73 -137 -93 -49 -47 -45 -4 5 52 21 23 51 60 66 82 24 33 19 30 -22 -15
-28 -30 -52 -58 -52 -62 0 -5 -4 -8 -10 -8 -13 0 -1 30 27 64 25 29 63 99 63
113 0 4 -14 -13 -31 -39 -17 -27 -35 -48 -40 -48 -5 0 -11 12 -15 28 -11 50
-14 48 -10 -8 2 -30 0 -64 -4 -74 -5 -16 -9 -11 -18 25 -11 43 -32 84 -32 64
0 -5 7 -32 15 -59 16 -52 20 -126 8 -126 -5 0 -21 30 -37 65 -16 36 -35 70
-42 76 -22 18 1 -48 36 -105 23 -35 30 -59 28 -84 -4 -46 -24 -52 -32 -9 -6
34 -54 117 -68 117 -10 0 28 -99 51 -130 28 -40 33 -67 18 -96 l-14 -27 -6 42
c-4 31 -19 58 -59 106 -60 72 -80 84 -43 26 13 -22 42 -74 64 -115 32 -61 39
-83 34 -111 -6 -39 -23 -48 -23 -12 -1 39 -36 101 -89 151 -56 55 -73 57 -38
5 51 -76 127 -209 127 -222 0 -24 -26 -78 -33 -70 -4 3 -7 18 -7 33 0 28 -39
88 -84 129 -14 14 -26 35 -26 48 0 19 -4 23 -19 18 -11 -3 -22 -1 -26 5 -3 5
-11 10 -18 10 -8 0 -8 -3 1 -12 15 -15 16 -48 2 -48 -5 0 -10 -7 -10 -16 0
-11 -6 -14 -21 -9 -18 6 -20 5 -10 -14 9 -17 9 -21 -3 -21 -10 0 -12 -7 -8
-22 4 -17 2 -20 -13 -15 -14 6 -16 3 -12 -14 7 -28 -9 -59 -30 -59 -12 0 -13
-3 -4 -14 6 -7 8 -21 5 -30 -6 -15 -10 -13 -25 11 -11 15 -19 43 -19 61 0 48
-52 102 -106 109 -37 5 -45 2 -83 -32 -47 -43 -49 -54 -20 -101 31 -51 1 -74
-49 -38 -79 55 -191 22 -217 -64 -9 -29 17 -69 53 -83 63 -25 165 -49 208 -49
l46 0 -31 -35 c-16 -19 -36 -53 -42 -75 -12 -39 -11 -44 26 -113 21 -40 50
-95 64 -124 14 -29 31 -52 36 -52 17 -1 168 87 193 113 13 13 29 47 36 77 12
53 12 54 20 22 7 -32 56 -83 79 -83 7 -1 23 -9 35 -20 l24 -20 -59 -66 c-32
-37 -98 -104 -147 -150 -48 -45 -87 -86 -85 -91 2 -5 27 -30 55 -56 l52 -48
41 47 c66 75 289 370 368 487 193 284 293 583 280 832 -19 339 -152 598 -419
815 -29 24 -11 4 39 -44z m288 -988 c-2 -7 -11 -36 -20 -64 l-16 -52 -57 -7
c-79 -10 -145 -37 -199 -81 l-46 -38 7 30 c16 64 30 76 171 150 141 74 168 84
160 62z m-424 -130 c11 -21 17 -38 14 -38 -18 0 -66 34 -94 66 -31 35 -32 37
-14 54 17 18 19 18 46 -13 16 -18 37 -49 48 -69z m-61 -52 c0 -20 -31 -43 -70
-51 -19 -3 -43 -9 -52 -11 -24 -7 -23 18 2 41 11 10 17 21 15 26 -3 4 -1 10 5
14 5 3 10 15 10 25 0 30 33 30 63 -2 15 -15 27 -34 27 -42z m442 37 c-5 -10
-17 -36 -27 -58 -51 -120 -75 -166 -119 -235 -27 -41 -57 -85 -67 -98 l-18
-24 -14 35 c-8 18 -27 43 -42 55 l-27 22 26 31 c28 33 33 58 14 77 -6 6 -10
13 -7 16 6 5 123 53 178 73 37 13 41 17 25 23 -48 18 -119 -7 -210 -75 -23
-17 -27 3 -8 36 16 27 40 42 144 85 136 58 166 65 152 37z m-692 -36 c0 -41
18 -107 29 -107 9 0 -10 -64 -22 -76 -4 -4 -7 -22 -7 -41 0 -36 -5 -38 -47
-22 -15 6 -59 19 -98 30 l-70 19 54 -3 54 -4 -39 23 c-42 26 -41 30 3 13 l28
-10 -24 25 c-34 36 -6 33 30 -3 29 -29 29 -29 29 -6 0 13 -4 27 -10 30 -5 3
-10 11 -10 16 0 16 20 -1 42 -35 17 -27 19 -28 13 -6 -4 14 -15 42 -25 63 -29
60 -3 44 48 -29 26 -40 1 30 -29 76 -33 52 -29 67 7 25 25 -30 25 -30 20 -5
-6 31 3 72 15 64 5 -3 9 -20 9 -37z m218 -138 c-50 -32 -60 -49 -31 -49 15 0
14 -2 -2 -20 -17 -19 -102 -57 -110 -49 -8 9 51 87 75 98 14 6 41 21 60 31 55
31 60 23 8 -11z m-61 -132 c-3 -9 12 -12 59 -12 34 0 68 -5 73 -10 7 -8 -6
-11 -44 -11 -30 0 -56 -2 -59 -5 -3 -3 14 -26 38 -51 24 -25 45 -57 48 -72 8
-38 -8 -32 -22 9 -13 39 -66 89 -86 81 -8 -3 -30 4 -49 15 -41 24 -42 21 -23
-60 8 -36 8 -55 1 -62 -7 -7 -13 1 -18 28 l-8 38 -13 -50 -12 -50 -2 50 -2 50
-12 -45 c-14 -50 -45 -114 -52 -107 -3 2 0 17 7 33 13 35 28 124 21 124 -3 0
-16 -10 -29 -22 -30 -28 -29 -12 2 35 20 29 22 37 10 37 -24 0 -18 19 10 32
19 8 31 8 51 -1 22 -10 32 -8 67 13 51 29 50 29 44 13z m113 -52 c29 -15 60
-51 60 -69 0 -6 -19 8 -42 31 -24 22 -50 43 -58 46 -10 4 -11 6 -2 6 7 1 26
-6 42 -14z m-75 -51 c24 -37 13 -40 -14 -4 -12 17 -17 30 -12 30 5 0 16 -12
26 -26z"/>
<path d="M4880 2515 c-185 -52 -289 -174 -298 -351 -11 -201 86 -306 320 -348
247 -45 288 -59 341 -112 37 -36 61 -122 53 -185 -15 -110 -74 -191 -175 -238
-51 -24 -67 -26 -171 -25 -125 1 -185 15 -252 61 -45 30 -49 40 -57 128 -6 66
-7 70 -32 73 l-26 3 -6 -98 c-4 -54 -7 -119 -7 -144 0 -45 1 -47 43 -62 184
-70 439 -61 592 21 80 44 170 135 207 210 31 62 33 73 33 172 0 95 -3 110 -27
156 -54 102 -132 139 -378 179 -176 29 -229 50 -270 107 -78 107 -29 291 94
356 46 24 61 27 156 27 115 0 177 -19 233 -72 24 -24 27 -34 27 -93 0 -72 9
-89 44 -83 22 4 24 11 30 101 3 54 9 109 12 125 6 24 2 29 -32 43 -128 55
-349 78 -454 49z"/>
<path d="M6700 2524 c-205 -39 -265 -60 -370 -128 -104 -68 -182 -156 -230
-259 -40 -84 -62 -191 -62 -302 0 -194 57 -341 182 -465 89 -90 178 -138 326
-176 91 -23 112 -25 259 -21 170 5 293 25 415 69 l65 23 -4 121 c-2 67 0 148
4 180 6 53 10 61 41 82 20 13 34 30 32 38 -3 13 -38 15 -231 17 l-228 3 3 -26
c3 -24 6 -25 88 -31 104 -6 118 -12 126 -54 7 -39 1 -281 -7 -289 -3 -4 -33
-16 -65 -28 -51 -19 -80 -22 -209 -23 -133 0 -158 3 -219 24 -135 46 -252 153
-316 287 -133 282 -64 639 152 786 161 109 408 128 619 47 118 -45 123 -52
127 -148 4 -80 4 -81 31 -81 27 0 27 1 40 103 22 174 24 166 -34 188 -95 38
-225 60 -370 64 -77 2 -151 2 -165 -1z"/>
<path d="M9208 2520 c-31 -5 -92 -21 -135 -35 -279 -94 -443 -331 -443 -640 0
-204 63 -369 189 -496 133 -133 282 -185 504 -176 137 5 227 26 325 75 242
121 372 344 372 639 0 144 -17 220 -71 325 -72 138 -215 245 -386 289 -90 23
-270 32 -355 19z m224 -81 c142 -31 259 -121 322 -251 60 -122 71 -181 71
-368 -1 -153 -3 -171 -28 -244 -36 -103 -67 -154 -126 -209 -88 -82 -183 -117
-321 -117 -154 1 -248 37 -346 136 -179 178 -241 543 -136 803 29 74 120 174
190 210 95 48 254 65 374 40z"/>
<path d="M10975 2386 c-45 -124 -338 -866 -355 -895 -8 -15 -10 -9 -104 409
-79 349 -98 449 -94 497 l3 38 70 10 c60 9 70 13 73 31 3 21 2 21 -235 20
-231 -1 -238 -2 -238 -21 0 -16 11 -23 57 -33 48 -12 59 -19 72 -45 14 -30
195 -791 251 -1057 37 -174 30 -160 79 -160 l43 0 28 78 c87 242 338 883 364
930 8 14 13 9 29 -28 18 -44 260 -708 322 -886 l31 -90 38 -2 c21 -2 43 3 48
10 6 7 43 135 83 283 77 291 128 464 221 757 54 170 63 189 89 203 16 8 40 15
55 15 20 0 25 5 25 24 l0 25 -195 0 -195 0 0 -23 c0 -21 5 -24 70 -29 39 -3
75 -9 80 -12 17 -10 11 -61 -20 -188 -41 -162 -211 -760 -219 -769 -6 -7 -244
644 -332 908 -38 115 -42 122 -69 126 -28 4 -29 3 -75 -126z"/>
<path d="M2750 2468 c0 -28 1 -28 64 -28 48 0 70 -5 87 -19 l24 -19 3 -538 c2
-388 -1 -546 -9 -566 -13 -31 -57 -48 -126 -48 -40 0 -43 -2 -43 -27 l0 -28
225 3 225 3 0 23 c0 21 -5 24 -72 29 -44 4 -77 12 -87 21 -25 26 -29 111 -29
571 l-1 440 67 -135 c155 -312 444 -919 456 -957 14 -45 40 -26 70 50 49 118
487 1049 503 1067 8 8 -2 -1005 -10 -1022 -11 -22 -60 -38 -117 -38 -33 0 -50
-5 -54 -15 -14 -39 -5 -40 267 -38 l262 2 3 24 c3 24 1 25 -67 29 -95 5 -104
15 -113 126 -8 116 -10 690 -1 870 8 179 11 185 110 192 64 5 68 6 71 31 l3
26 -183 -1 -184 0 -34 -81 c-31 -75 -376 -800 -432 -910 l-26 -50 -97 200
c-54 110 -134 274 -178 365 -44 91 -112 235 -152 320 l-72 155 -176 0 -177 0
0 -27z"/>
<path d="M7460 2475 c0 -25 6 -28 109 -39 24 -2 49 -9 55 -16 13 -13 22 -892
11 -1048 -7 -93 -7 -94 -40 -113 -32 -19 -52 -55 -34 -61 5 -2 215 -2 467 0
l459 2 6 138 c4 75 10 147 13 160 6 21 4 23 -22 20 -28 -3 -30 -7 -52 -105
-22 -96 -25 -102 -55 -114 -22 -9 -116 -14 -293 -17 l-261 -4 -8 267 c-4 146
-4 399 0 562 9 339 7 333 93 333 70 0 92 9 92 35 l0 23 -270 0 -270 0 0 -23z"/>
<path d="M1076 2232 c16 -15 34 -36 41 -47 12 -20 12 -19 12 2 1 12 -12 32
-30 47 -41 35 -59 33 -23 -2z"/>
<path d="M1000 2200 c0 -16 47 -60 65 -60 8 0 15 5 15 10 0 6 -4 10 -9 10 -5
0 -23 12 -40 26 -17 14 -31 21 -31 14z"/>
<path d="M2840 465 c0 -9 10 -15 25 -15 l25 0 0 -194 c0 -171 -2 -195 -16
-200 -33 -13 -3 -18 100 -19 96 -1 107 1 144 25 40 27 72 79 72 118 0 38 -28
78 -65 91 l-35 13 34 28 c38 31 49 67 34 110 -15 44 -41 51 -185 55 -112 2
-133 0 -133 -12z m223 -26 c30 -16 37 -28 37 -65 0 -34 -31 -74 -59 -74 -10 0
-33 -3 -50 -6 l-31 -6 0 81 0 81 41 0 c22 0 50 -5 62 -11z m2 -183 c43 -18 59
-48 52 -98 -8 -62 -39 -88 -104 -88 l-53 0 0 100 0 100 35 0 c20 0 51 -6 70
-14z"/>
<path d="M3975 471 c-13 -12 -2 -21 24 -21 38 0 41 -13 41 -180 0 -179 -6
-210 -36 -210 -13 0 -24 -6 -24 -12 0 -10 39 -13 159 -13 88 0 161 2 164 5 3
3 8 29 12 59 6 43 5 53 -6 49 -8 -3 -16 -15 -17 -29 -7 -43 -19 -49 -108 -49
l-84 0 0 90 0 91 68 -3 c65 -3 67 -4 70 -30 7 -58 22 -25 22 47 0 72 -15 105
-22 48 -3 -27 -5 -28 -70 -31 l-68 -3 0 86 0 85 64 0 c85 0 116 -12 116 -45 0
-14 5 -25 10 -25 6 0 10 8 10 19 0 10 3 33 6 50 l7 32 -167 -3 c-92 -1 -169
-4 -171 -7z"/>
<path d="M5299 433 c-141 -330 -161 -371 -185 -377 -46 -12 -13 -26 57 -26 52
0 70 3 67 13 -3 6 -14 13 -26 15 -27 4 -27 13 -5 75 l17 47 88 0 89 0 19 -42
c26 -56 25 -76 -2 -80 -12 -2 -23 -7 -25 -13 -2 -6 30 -10 82 -10 80 0 110 10
65 22 -22 6 -27 15 -91 168 -90 217 -105 249 -117 253 -7 2 -21 -17 -33 -45z
m61 -153 l29 -70 -75 0 -74 0 13 33 c56 131 60 139 69 122 5 -9 22 -47 38 -85z"/>
<path d="M6330 465 c0 -9 9 -15 24 -15 13 0 27 -7 30 -16 3 -9 6 -83 6 -165 0
-168 8 -197 63 -226 44 -24 159 -24 207 0 65 31 74 61 80 242 l5 160 28 3 c15
2 27 9 27 18 0 11 -17 14 -75 14 -58 0 -75 -3 -75 -14 0 -8 10 -16 23 -18 20
-3 23 -11 31 -77 4 -40 5 -112 1 -159 -6 -76 -10 -89 -35 -114 -26 -25 -35
-28 -95 -28 -60 0 -69 3 -96 29 l-30 30 3 158 3 158 28 3 c15 2 27 9 27 18 0
11 -19 14 -90 14 -73 0 -90 -3 -90 -15z"/>
<path d="M7564 471 c-2 -2 -4 -26 -4 -53 0 -35 4 -48 14 -48 10 0 16 13 18 38
l3 37 58 3 57 3 -2 -193 -3 -193 -28 -3 c-16 -2 -27 -8 -24 -15 5 -15 176 -17
180 -2 1 6 -10 11 -24 13 -18 2 -29 11 -33 25 -8 29 -8 331 0 351 5 12 20 16
60 16 47 0 54 -3 55 -20 1 -11 3 -24 4 -30 1 -5 3 -14 4 -20 0 -5 6 -10 11
-10 6 0 10 24 10 54 l0 54 -176 -2 c-96 0 -177 -3 -180 -5z"/>
<path d="M8703 473 c-30 -6 -29 -17 1 -31 28 -12 59 -51 115 -144 39 -65 41
-71 41 -152 0 -83 0 -85 -25 -88 -14 -2 -27 -7 -28 -13 -3 -14 163 -19 176 -6
8 8 1 13 -21 17 -26 5 -33 12 -38 41 -13 71 1 128 51 208 26 42 63 97 81 121
28 36 31 46 19 50 -28 11 -42 -4 -95 -98 -75 -132 -68 -128 -107 -56 -19 35
-48 84 -65 111 -31 48 -41 52 -105 40z"/>
<path d="M590 250 c0 -20 7 -20 875 -20 868 0 875 0 875 20 0 20 -7 20 -875
20 -868 0 -875 0 -875 -20z"/>
<path d="M9510 250 c0 -20 7 -20 875 -20 868 0 875 0 875 20 0 20 -7 20 -875
20 -868 0 -875 0 -875 -20z"/>
</g>
</svg>
